<?xml version="1.0" encoding="UTF-8" standalone="no"?><svg xmlns="http://www.w3.org/2000/svg" xmlns:xlink="http://www.w3.org/1999/xlink" contentStyleType="text/css" height="442px" preserveAspectRatio="none" style="width:860px;height:442px;background:#FFFFFF;" version="1.1" viewBox="0 0 860 442" width="860px" zoomAndPan="magnify"><defs/><g><text fill="#000000" font-family="sans-serif" font-size="14" font-weight="bold" lengthAdjust="spacing" textLength="613" x="116.5" y="25.1074">Calypsonet - calypsonet-terminal-calypso-crypto-asymmetric-java-api - 0.1.+ (2022-11-29)</text><!--MD5=[7442f3b126ee602ae02566c1a49e158a]
cluster api--><g id="cluster_api"><path d="M8.5,45.6348 L362.5,45.6348 A3.75,3.75 0 0 1 365,48.1348 L372,70.2559 L850.5,70.2559 A2.5,2.5 0 0 1 853,72.7559 L853,433.1348 A2.5,2.5 0 0 1 850.5,435.6348 L8.5,435.6348 A2.5,2.5 0 0 1 6,433.1348 L6,48.1348 A2.5,2.5 0 0 1 8.5,45.6348 " fill="#F8F9F9" style="stroke:#000000;stroke-width:1.5;"/><line style="stroke:#000000;stroke-width:1.5;" x1="6" x2="372" y1="70.2559" y2="70.2559"/><text fill="#000000" font-family="sans-serif" font-size="14" font-weight="bold" lengthAdjust="spacing" textLength="353" x="10" y="62.7422">org.calypsonet.terminal.calypso.crypto.asymmetric</text></g><!--MD5=[f7e0e2453c87923036c1ac2adfb9cbf0]
cluster spi--><g id="cluster_spi"><path d="M319.5,90.6348 L341.5,90.6348 A3.75,3.75 0 0 1 344,93.1348 L351,115.2559 L826.5,115.2559 A2.5,2.5 0 0 1 829,117.7559 L829,409.1348 A2.5,2.5 0 0 1 826.5,411.6348 L319.5,411.6348 A2.5,2.5 0 0 1 317,409.1348 L317,93.1348 A2.5,2.5 0 0 1 319.5,90.6348 " fill="#F2F3F4" style="stroke:#000000;stroke-width:1.5;"/><line style="stroke:#000000;stroke-width:1.5;" x1="317" x2="351" y1="115.2559" y2="115.2559"/><text fill="#000000" font-family="sans-serif" font-size="14" font-weight="bold" lengthAdjust="spacing" textLength="21" x="321" y="107.7422">spi</text></g><!--MD5=[120218adfd8782b0057db0a1b8294250]
class ApiProperties--><g id="elem_ApiProperties"><rect codeLine="54" fill="#FEFECE" height="66.6211" id="ApiProperties" rx="2.5" ry="2.5" style="stroke:#D4AC0D;stroke-width:2.0;" width="276" x="22" y="127.6348"/><ellipse cx="37" cy="143.6348" fill="#ADD1B2" rx="11" ry="11" style="stroke:#181818;stroke-width:1.0;"/><path d="M39.7656,139.5098 Q39.9219,139.291 40.1094,139.1816 Q40.2969,139.0723 40.5156,139.0723 Q40.8906,139.0723 41.125,139.3379 Q41.3594,139.5879 41.3594,140.1973 L41.3594,141.6504 Q41.3594,142.2598 41.125,142.5254 Q40.8906,142.791 40.5156,142.791 Q40.1719,142.791 39.9688,142.5879 Q39.7656,142.4004 39.6563,141.8848 Q39.6094,141.5254 39.4219,141.3379 Q39.0938,140.9629 38.4844,140.7441 Q37.875,140.5254 37.25,140.5254 Q36.4844,140.5254 35.8438,140.8535 Q35.2188,141.1816 34.7188,141.9316 Q34.2344,142.6816 34.2344,143.7129 L34.2344,144.8066 Q34.2344,146.041 35.125,146.8691 Q36.0156,147.6816 37.6094,147.6816 Q38.5469,147.6816 39.2031,147.4316 Q39.5938,147.2754 40.0156,146.8379 Q40.2813,146.5723 40.4219,146.4941 Q40.5781,146.416 40.7813,146.416 Q41.1094,146.416 41.3594,146.6816 Q41.625,146.9316 41.625,147.2754 Q41.625,147.6191 41.2813,148.0254 Q40.7813,148.6035 39.9844,148.9316 Q38.9063,149.3848 37.6094,149.3848 Q36.0938,149.3848 34.8906,148.7598 Q33.9063,148.2598 33.2188,147.1973 Q32.5313,146.1191 32.5313,144.8379 L32.5313,143.6816 Q32.5313,142.3535 33.1406,141.2129 Q33.7656,140.0566 34.8594,139.4473 Q35.9531,138.8223 37.1875,138.8223 Q37.9219,138.8223 38.5625,138.9941 Q39.2188,139.1504 39.7656,139.5098 Z " fill="#000000"/><ellipse cx="56" cy="143.1348" fill="#84BE84" rx="3" ry="3" style="stroke:#038048;stroke-width:1.0;"/><text fill="#000000" font-family="sans-serif" font-size="14" font-weight="bold" lengthAdjust="spacing" textLength="30" x="62" y="149.4316">final</text><text fill="#000000" font-family="sans-serif" font-size="14" lengthAdjust="spacing" textLength="199" x="96" y="149.4316">CryptoAsymmetricApiProperties</text><line style="stroke:#D4AC0D;stroke-width:2.0;" x1="23" x2="297" y1="159.6348" y2="159.6348"/><ellipse cx="33" cy="174.4453" fill="none" rx="3" ry="3" style="stroke:#038048;stroke-width:1.0;"/><text fill="#000000" font-family="sans-serif" font-size="14" font-weight="bold" lengthAdjust="spacing" text-decoration="underline" textLength="30" x="42" y="178.7422">final</text><text fill="#000000" font-family="sans-serif" font-size="14" lengthAdjust="spacing" text-decoration="underline" textLength="101" x="76" y="178.7422">String VERSION</text><line style="stroke:#D4AC0D;stroke-width:2.0;" x1="23" x2="297" y1="186.2559" y2="186.2559"/></g><!--MD5=[24467aae8567417cbdd61418ca133705]
class AsymmetricCryptoTransactionManagerFactorySpi--><g id="elem_AsymmetricCryptoTransactionManagerFactorySpi"><rect codeLine="58" fill="#FEFECE" height="66.6211" id="AsymmetricCryptoTransactionManagerFactorySpi" rx="2.5" ry="2.5" style="stroke:#D4AC0D;stroke-width:2.0;" width="480" x="333" y="127.6348"/><ellipse cx="406.25" cy="143.6348" fill="#B4A7E5" rx="11" ry="11" style="stroke:#181818;stroke-width:1.0;"/><path d="M407.2031,140.2754 L407.2031,146.9316 L408.9219,146.9316 Q409.5313,146.9316 409.7969,147.166 Q410.0625,147.4004 410.0625,147.791 Q410.0625,148.166 409.7969,148.4004 Q409.5313,148.6348 408.9219,148.6348 L403.7813,148.6348 Q403.1719,148.6348 402.9063,148.4004 Q402.6406,148.166 402.6406,147.7754 Q402.6406,147.4004 402.9063,147.166 Q403.1719,146.9316 403.7813,146.9316 L405.5,146.9316 L405.5,140.2754 L403.7813,140.2754 Q403.1719,140.2754 402.9063,140.041 Q402.6406,139.8066 402.6406,139.416 Q402.6406,139.041 402.9063,138.8066 Q403.1719,138.5723 403.7813,138.5723 L408.9219,138.5723 Q409.5313,138.5723 409.7969,138.8066 Q410.0625,139.041 410.0625,139.416 Q410.0625,139.8066 409.7969,140.041 Q409.5313,140.2754 408.9219,140.2754 L407.2031,140.2754 Z " fill="#000000"/><ellipse cx="431.75" cy="143.1348" fill="#84BE84" rx="3" ry="3" style="stroke:#038048;stroke-width:1.0;"/><text fill="#000000" font-family="sans-serif" font-size="14" font-style="italic" lengthAdjust="spacing" textLength="314" x="437.75" y="149.4316">AsymmetricCryptoTransactionManagerFactorySpi</text><line style="stroke:#D4AC0D;stroke-width:2.0;" x1="334" x2="812" y1="159.6348" y2="159.6348"/><line style="stroke:#D4AC0D;stroke-width:2.0;" x1="334" x2="812" y1="167.6348" y2="167.6348"/><ellipse cx="344" cy="182.4453" fill="#84BE84" rx="3" ry="3" style="stroke:#038048;stroke-width:1.0;"/><text fill="#000000" font-family="sans-serif" font-size="14" lengthAdjust="spacing" textLength="454" x="353" y="186.7422">AsymmetricCryptoTransactionManagerSpi createTransactionManager ()</text></g><!--MD5=[7c2139d591ba70866ea0b3c9f91a5e38]
class AsymmetricCryptoTransactionManagerSpi--><g id="elem_AsymmetricCryptoTransactionManagerSpi"><rect codeLine="61" fill="#FEFECE" height="122.4844" id="AsymmetricCryptoTransactionManagerSpi" rx="2.5" ry="2.5" style="stroke:#D4AC0D;stroke-width:2.0;" width="456" x="345" y="273.6348"/><ellipse cx="430.25" cy="289.6348" fill="#B4A7E5" rx="11" ry="11" style="stroke:#181818;stroke-width:1.0;"/><path d="M431.2031,286.2754 L431.2031,292.9316 L432.9219,292.9316 Q433.5313,292.9316 433.7969,293.166 Q434.0625,293.4004 434.0625,293.791 Q434.0625,294.166 433.7969,294.4004 Q433.5313,294.6348 432.9219,294.6348 L427.7813,294.6348 Q427.1719,294.6348 426.9063,294.4004 Q426.6406,294.166 426.6406,293.7754 Q426.6406,293.4004 426.9063,293.166 Q427.1719,292.9316 427.7813,292.9316 L429.5,292.9316 L429.5,286.2754 L427.7813,286.2754 Q427.1719,286.2754 426.9063,286.041 Q426.6406,285.8066 426.6406,285.416 Q426.6406,285.041 426.9063,284.8066 Q427.1719,284.5723 427.7813,284.5723 L432.9219,284.5723 Q433.5313,284.5723 433.7969,284.8066 Q434.0625,285.041 434.0625,285.416 Q434.0625,285.8066 433.7969,286.041 Q433.5313,286.2754 432.9219,286.2754 L431.2031,286.2754 Z " fill="#000000"/><ellipse cx="455.75" cy="289.1348" fill="#84BE84" rx="3" ry="3" style="stroke:#038048;stroke-width:1.0;"/><text fill="#000000" font-family="sans-serif" font-size="14" font-style="italic" lengthAdjust="spacing" textLength="266" x="461.75" y="295.4316">AsymmetricCryptoTransactionManagerSpi</text><line style="stroke:#D4AC0D;stroke-width:2.0;" x1="346" x2="800" y1="305.6348" y2="305.6348"/><line style="stroke:#D4AC0D;stroke-width:2.0;" x1="346" x2="800" y1="313.6348" y2="313.6348"/><ellipse cx="356" cy="328.4453" fill="#84BE84" rx="3" ry="3" style="stroke:#038048;stroke-width:1.0;"/><text fill="#000000" font-family="sans-serif" font-size="14" lengthAdjust="spacing" textLength="319" x="365" y="332.7422">byte[] extractCardPublicKey (byte[] cardCertificate)</text><ellipse cx="356" cy="347.0664" fill="#84BE84" rx="3" ry="3" style="stroke:#038048;stroke-width:1.0;"/><text fill="#000000" font-family="sans-serif" font-size="14" lengthAdjust="spacing" textLength="357" x="365" y="351.3633">void initTerminalSessionSignature (byte[] cardPublicKey)</text><ellipse cx="356" cy="365.6875" fill="#84BE84" rx="3" ry="3" style="stroke:#038048;stroke-width:1.0;"/><text fill="#000000" font-family="sans-serif" font-size="14" lengthAdjust="spacing" textLength="354" x="365" y="369.9844">void updateTerminalSessionSignature (byte[] cardApdu)</text><ellipse cx="356" cy="384.3086" fill="#84BE84" rx="3" ry="3" style="stroke:#038048;stroke-width:1.0;"/><text fill="#000000" font-family="sans-serif" font-size="14" lengthAdjust="spacing" textLength="430" x="365" y="388.6055">boolean isCardSessionSignatureValid (byte[] cardSessionSignature)</text></g><!--MD5=[0f43703e6c17e1aae30c4ccbb0ca4e62]
link AsymmetricCryptoTransactionManagerFactorySpi to AsymmetricCryptoTransactionManagerSpi--><g id="link_AsymmetricCryptoTransactionManagerFactorySpi_AsymmetricCryptoTransactionManagerSpi"><path codeLine="72" d="M573,194.7968 C573,215.4828 573,242.9658 573,268.0188 " fill="none" id="AsymmetricCryptoTransactionManagerFactorySpi-to-AsymmetricCryptoTransactionManagerSpi" style="stroke:#3498DB;stroke-width:2.0;stroke-dasharray:7.0,7.0;"/><polygon fill="#3498DB" points="573,273.3248,577,264.3248,573,268.3248,569,264.3248,573,273.3248" style="stroke:#3498DB;stroke-width:2.0;"/><polygon fill="#000000" points="578,239.2803,580.9389,230.2352,575.0611,230.2352,578,239.2803" style="stroke:#000000;stroke-width:1.0;"/><text fill="#000000" font-family="sans-serif" font-size="13" lengthAdjust="spacing" textLength="40" x="587" y="239.6631">provide</text></g><!--MD5=[c5569358a6c3539365ee5e9ac8e5fe27]
@startuml
title
    Calypsonet - calypsonet-terminal-calypso-crypto-asymmetric-java-api - 0.1.+ (2022-11-29)
end title

' == THEME ==

'Couleurs issues de : https://htmlcolorcodes.com/fr/tableau-de-couleur/tableau-de-couleur-design-plat/
!define C_GREY1 F8F9F9
!define C_GREY2 F2F3F4
!define C_GREY3 E5E7E9
!define C_GREY4 D7DBDD
!define C_GREY5 CACFD2
!define C_GREY6 BDC3C7
!define C_LINK 3498DB
!define C_USE 27AE60

' - - Styles that don't work with new version of plantuml - -
skinparam stereotypeABorderColor #A9DCDF
skinparam stereotypeIBorderColor #B4A7E5
skinparam stereotypeCBorderColor #ADD1B2
skinparam stereotypeEBorderColor #EB93DF
' - - END - -

skinparam ClassBorderThickness 2
skinparam ArrowThickness 2

' Yellow
skinparam ClassBackgroundColor #FEFECE
skinparam ClassBorderColor #D4AC0D
' Red
skinparam ClassBackgroundColor<<red>> #FDEDEC
skinparam ClassBorderColor<<red>> #E74C3C
hide <<red>> stereotype
' Purple
skinparam ClassBackgroundColor<<purple>> #F4ECF7
skinparam ClassBorderColor<<purple>> #8E44AD
hide <<purple>> stereotype
' blue
skinparam ClassBackgroundColor<<blue>> #EBF5FB
skinparam ClassBorderColor<<blue>> #3498DB
hide <<blue>> stereotype
' Green
skinparam ClassBackgroundColor<<green>> #E9F7EF
skinparam ClassBorderColor<<green>> #27AE60
hide <<green>> stereotype
' Grey
skinparam ClassBackgroundColor<<grey>> #EAECEE
skinparam ClassBorderColor<<grey>> #2C3E50
hide <<grey>> stereotype

' == CONTENT ==

package "org.calypsonet.terminal.calypso.crypto.asymmetric" as api {
    +class "**final** CryptoAsymmetricApiProperties" as ApiProperties {
        +{static} **final** String VERSION
    }
    package spi {
        +interface AsymmetricCryptoTransactionManagerFactorySpi {
            +AsymmetricCryptoTransactionManagerSpi createTransactionManager ()
        }
        +interface AsymmetricCryptoTransactionManagerSpi {
            +byte[] extractCardPublicKey (byte[] cardCertificate)
            +void initTerminalSessionSignature (byte[] cardPublicKey)
            +void updateTerminalSessionSignature (byte[] cardApdu)
            +boolean isCardSessionSignatureValid (byte[] cardSessionSignature)
        }
    }
}

' Associations

AsymmetricCryptoTransactionManagerFactorySpi ..> AsymmetricCryptoTransactionManagerSpi #C_LINK : provide >

' == LAYOUT ==

'CardSecuritySetting -[hidden]- CalypsoSam

' == STYLE ==

package api #C_GREY1 {}
package spi #C_GREY2 {}

@enduml

@startuml
title
    Calypsonet - calypsonet-terminal-calypso-crypto-asymmetric-java-api - 0.1.+ (2022-11-29)
end title



skinparam stereotypeABorderColor #A9DCDF
skinparam stereotypeIBorderColor #B4A7E5
skinparam stereotypeCBorderColor #ADD1B2
skinparam stereotypeEBorderColor #EB93DF

skinparam ClassBorderThickness 2
skinparam ArrowThickness 2

skinparam ClassBackgroundColor #FEFECE
skinparam ClassBorderColor #D4AC0D
skinparam ClassBackgroundColor<<red>> #FDEDEC
skinparam ClassBorderColor<<red>> #E74C3C
hide <<red>> stereotype
skinparam ClassBackgroundColor<<purple>> #F4ECF7
skinparam ClassBorderColor<<purple>> #8E44AD
hide <<purple>> stereotype
skinparam ClassBackgroundColor<<blue>> #EBF5FB
skinparam ClassBorderColor<<blue>> #3498DB
hide <<blue>> stereotype
skinparam ClassBackgroundColor<<green>> #E9F7EF
skinparam ClassBorderColor<<green>> #27AE60
hide <<green>> stereotype
skinparam ClassBackgroundColor<<grey>> #EAECEE
skinparam ClassBorderColor<<grey>> #2C3E50
hide <<grey>> stereotype


package "org.calypsonet.terminal.calypso.crypto.asymmetric" as api {
    +class "**final** CryptoAsymmetricApiProperties" as ApiProperties {
        +{static} **final** String VERSION
    }
    package spi {
        +interface AsymmetricCryptoTransactionManagerFactorySpi {
            +AsymmetricCryptoTransactionManagerSpi createTransactionManager ()
        }
        +interface AsymmetricCryptoTransactionManagerSpi {
            +byte[] extractCardPublicKey (byte[] cardCertificate)
            +void initTerminalSessionSignature (byte[] cardPublicKey)
            +void updateTerminalSessionSignature (byte[] cardApdu)
            +boolean isCardSessionSignatureValid (byte[] cardSessionSignature)
        }
    }
}


AsymmetricCryptoTransactionManagerFactorySpi ..> AsymmetricCryptoTransactionManagerSpi #3498DB : provide >




package api #F8F9F9 {}
package spi #F2F3F4 {}

@enduml

PlantUML version 1.2022.13(Sat Nov 19 14:22:17 CET 2022)
(GPL source distribution)
Java Runtime: OpenJDK Runtime Environment
JVM: OpenJDK 64-Bit Server VM
Default Encoding: Cp1252
Language: fr
Country: FR
--></g></svg>